<?xml version="1.0" encoding="UTF-8" standalone="no"?>
<!-- Created with Inkscape (http://www.inkscape.org/) -->

<svg
   width="210mm"
   height="297mm"
   viewBox="0 0 210 297"
   version="1.1"
   id="svg1"
   sodipodi:docname="clip.svg"
   inkscape:version="1.3 (1:1.3+202307231459+0e150ed6c4)"
   xmlns:inkscape="http://www.inkscape.org/namespaces/inkscape"
   xmlns:sodipodi="http://sodipodi.sourceforge.net/DTD/sodipodi-0.dtd"
   xmlns="http://www.w3.org/2000/svg"
   xmlns:svg="http://www.w3.org/2000/svg">
  <sodipodi:namedview
     id="namedview1"
     pagecolor="#ffffff"
     bordercolor="#000000"
     borderopacity="0.25"
     inkscape:showpageshadow="2"
     inkscape:pageopacity="0.0"
     inkscape:pagecheckerboard="0"
     inkscape:deskcolor="#d1d1d1"
     inkscape:document-units="mm"
     inkscape:zoom="13.91156"
     inkscape:cx="15.167242"
     inkscape:cy="1115.2595"
     inkscape:window-width="1122"
     inkscape:window-height="740"
     inkscape:window-x="26"
     inkscape:window-y="23"
     inkscape:window-maximized="0"
     inkscape:current-layer="layer1"
     showgrid="false" />
  <defs
     id="defs1" />
  <g
     inkscape:label="Layer 1"
     inkscape:groupmode="layer"
     id="layer1">
    <path
       d="m 1.4411964,294.1956 c -0.038131,6.2e-4 -0.074666,0.002 -0.1108609,0.005 -0.036251,0.003 -0.07203,0.007 -0.1063754,0.0124 -0.034373,0.005 -0.067406,0.0114 -0.099967,0.0186 -0.03259,0.007 -0.064686,0.0152 -0.095482,0.0243 -0.0308048,0.009 -0.0612412,0.0192 -0.0903553,0.03 -0.0291143,0.0108 -0.0571641,0.0223 -0.0845878,0.0346 -0.0274706,0.0124 -0.0537007,0.0251 -0.0794613,0.0388 -0.0257606,0.0137 -0.0507215,0.0283 -0.0749756,0.0434 -0.0242306,0.015 -0.0477294,0.0308 -0.0704898,0.047 -0.0227604,0.0162 -0.0447742,0.0331 -0.0660041,0.0501 -0.0212253,0.0172 -0.0422688,0.0348 -0.0621592,0.0527 -0.0198904,0.0179 -0.0386204,0.0362 -0.0570326,0.0548 -0.0184076,0.0186 -0.036252,0.0373 -0.0531877,0.0563 -0.0169358,0.019 -0.0329568,0.0384 -0.0487021,0.0579 -0.0314621,0.039 -0.0612134,0.0788 -0.0877918,0.11834 -0.0265783,0.0395 -0.049795,0.079 -0.0717715,0.11782 -0.0219766,0.0388 -0.0419394,0.0768 -0.0595959,0.11369 -0.0177502,0.0369 -0.03361467,0.0727 -0.04742042,0.10645 -0.01389976,0.0338 -0.02610177,0.0656 -0.03652654,0.0951 C 0.02023023,295.32465 0.0089221,295.36438 0,295.3976 v 1.60196 2.0004 h 1.8705435 v -2.0004 -1.22111 -0.0103 c 2.348e-4,-0.0122 0.00141,-0.0246 0.0032,-0.0367 0.00178,-0.0121 0.00453,-0.0239 0.00769,-0.0357 0.00316,-0.0117 0.00704,-0.0229 0.011533,-0.0341 0.0045,-0.0112 0.00962,-0.0224 0.015379,-0.0331 0.00615,-0.0113 0.012899,-0.0222 0.020506,-0.0326 0.0076,-0.0104 0.01575,-0.0203 0.024351,-0.0294 0.00861,-0.009 0.017949,-0.0175 0.027556,-0.0253 0.00961,-0.008 0.019472,-0.0152 0.030118,-0.0217 0.00995,-0.006 0.020369,-0.0113 0.03076,-0.016 0.010387,-0.005 0.021075,-0.009 0.032041,-0.0124 0.010966,-0.003 0.021865,-0.006 0.033322,-0.008 0.011458,-0.002 0.023144,-0.003 0.034604,-0.004 h 0.00896 1.5693597 v -0.008 c -0.00469,-0.005 -0.01426,-0.0177 -0.041012,-0.0481 -0.031557,-0.0357 -0.078279,-0.0863 -0.1377757,-0.14728 -0.029771,-0.0305 -0.062145,-0.0638 -0.098046,-0.0987 -0.035901,-0.0349 -0.075318,-0.0715 -0.1172695,-0.10955 -0.041981,-0.0381 -0.087221,-0.0774 -0.1345716,-0.11731 -0.047427,-0.0399 -0.097584,-0.0804 -0.149951,-0.12092 -0.052406,-0.0405 -0.1064934,-0.0806 -0.1634082,-0.12041 -0.028458,-0.0199 -0.057033,-0.0399 -0.08651,-0.0594 -0.029477,-0.0195 -0.059846,-0.0385 -0.090356,-0.0574 -0.030523,-0.0188 -0.061529,-0.0377 -0.092919,-0.0558 -0.03139,-0.0181 -0.063151,-0.0355 -0.095482,-0.0527 -0.032354,-0.0172 -0.064871,-0.034 -0.098044,-0.0501 -0.033174,-0.0161 -0.066671,-0.0316 -0.1006085,-0.0465 -0.033951,-0.0149 -0.068579,-0.0294 -0.1031713,-0.0429 -0.034593,-0.0135 -0.069135,-0.0262 -0.1044538,-0.0382 -0.035313,-0.012 -0.071532,-0.0233 -0.1076568,-0.0336 -0.036125,-0.0103 -0.072462,-0.0195 -0.1089393,-0.0279 -0.036441,-0.008 -0.072577,-0.0158 -0.1095795,-0.0222 -0.037003,-0.006 -0.074067,-0.0118 -0.1115021,-0.016 -0.037379,-0.004 -0.075669,-0.007 -0.1134242,-0.009 -0.037754,-0.002 -0.075897,-0.003 -0.1140652,-0.002 z"
       style="fill:#999999;stroke-width:0.0370073"
       id="path1" />
  </g>
</svg>
