<?xml version="1.0" encoding="UTF-8" standalone="no"?>
<!-- Created with Inkscape (http://www.inkscape.org/) -->

<svg
   width="210mm"
   height="297mm"
   viewBox="0 0 210 297"
   version="1.1"
   id="svg1"
   xml:space="preserve"
   inkscape:version="1.3 (1:1.3+202307231459+0e150ed6c4)"
   sodipodi:docname="secure_id.svg"
   xmlns:inkscape="http://www.inkscape.org/namespaces/inkscape"
   xmlns:sodipodi="http://sodipodi.sourceforge.net/DTD/sodipodi-0.dtd"
   xmlns="http://www.w3.org/2000/svg"
   xmlns:svg="http://www.w3.org/2000/svg"><sodipodi:namedview
     id="namedview1"
     pagecolor="#ffffff"
     bordercolor="#000000"
     borderopacity="0.25"
     inkscape:showpageshadow="2"
     inkscape:pageopacity="0.0"
     inkscape:pagecheckerboard="0"
     inkscape:deskcolor="#d1d1d1"
     inkscape:document-units="mm"
     inkscape:zoom="2.1433923"
     inkscape:cx="60.184971"
     inkscape:cy="1026.6436"
     inkscape:window-width="2560"
     inkscape:window-height="1403"
     inkscape:window-x="0"
     inkscape:window-y="0"
     inkscape:window-maximized="1"
     inkscape:current-layer="layer1" /><defs
     id="defs1" /><g
     inkscape:label="Layer 1"
     inkscape:groupmode="layer"
     id="layer1"><path
       d="m -0.36392665,283.34045 c -0.79717795,2e-5 -1.59283695,0.0698 -2.37790195,0.20846 -0.785079,0.13867 -1.556576,0.34575 -2.305691,0.61889 -0.749119,0.27315 -1.473001,0.61132 -2.163391,1.01064 -0.690389,0.39931 -1.344658,0.85826 -1.955343,1.3716 -0.217422,0.20404 -0.428141,0.41512 -0.631818,0.63293 h -30.9062564 -1.07953 c -0.1524,0.015 -0.30296,0.045 -0.44952,0.0894 -0.28421,0.11772 -0.54246,0.29027 -0.75998,0.5078 -0.21753,0.21752 -0.39008,0.47577 -0.5078,0.75998 -0.10497,0.26433 -0.16092,0.54558 -0.16512,0.82996 -0.0451,0.18145 -0.0478,0.18572 -0.10393,0.41862 -0.0784,0.32568 -0.1625,0.68428 -0.23855,1.02752 -0.076,0.34323 -0.144,0.67105 -0.18996,0.935 -0.0863,0.49586 -0.15512,0.99479 -0.2128,1.49511 -0.0577,0.50032 -0.10425,1.00208 -0.14634,1.5037 -0.0324,0.38642 -0.0605,0.96739 -0.0804,1.45179 -0.0198,0.48103 -0.0314,0.86089 -0.0315,0.86622 1.6e-4,0.005 0.0117,0.38503 0.0315,0.86592 0.0199,0.48421 0.048,1.06492 0.0804,1.45119 0.0421,0.50142 0.0887,1.00306 0.14634,1.50319 0.0577,0.50012 0.12645,0.99883 0.2128,1.49451 0.046,0.26385 0.11392,0.59149 0.18996,0.9346 0.0761,0.3431 0.16014,0.70166 0.23855,1.0272 0.0563,0.23353 0.059,0.23802 0.10423,0.41973 0.004,0.28383 0.0602,0.56451 0.16482,0.82836 0.11772,0.28421 0.29027,0.54245 0.5078,0.75998 0.21752,0.21752 0.47577,0.39007 0.75998,0.50779 0.12317,0.0352 0.24903,0.0602 0.3763,0.0748 h 1.04024 31.0187664 c 0.203677,0.21781 0.414396,0.42889 0.631818,0.63293 0.610685,0.51334 1.264954,0.97229 1.955343,1.3716 0.69039,0.39932 1.414272,0.73749 2.163391,1.01064 0.749115,0.27314 1.520612,0.48022 2.305691,0.61889 0.785065,0.13869 1.580724,0.20844 2.37790195,0.20846 0.797211,-10e-6 1.59290405,-0.0698 2.37800205,-0.20846 0.785079,-0.13867 1.556576,-0.34575 2.305692,-0.61889 0.749118,-0.27315 1.473001,-0.61132 2.16339,-1.01064 0.690389,-0.39931 1.344658,-0.85826 1.955344,-1.3716 0.610694,-0.51335 1.175478,-1.07915 1.6879106,-1.69094 0.512432,-0.61176 0.970565,-1.26718 1.369175,-1.95878 0.398572,-0.69165 0.736098,-1.41685 1.008727,-2.16733 0.272679,-0.75046 0.479426,-1.52334 0.617881,-2.30983 0.138433,-0.7865 0.208047,-1.58361 0.208047,-2.38224 -1.5e-5,-0.28734 -0.009,-0.57461 -0.02707,-0.86138 -0.01802,-0.2868 -0.04503,-0.57295 -0.081,-0.85805 -0.03593,-0.28506 -0.0808,-0.56893 -0.134523,-0.85117 -0.05374,-0.28226 -0.116321,-0.56276 -0.187647,-0.84108 -0.07135,-0.27833 -0.151409,-0.55435 -0.240063,-0.82764 -0.08862,-0.27329 -0.185792,-0.54372 -0.291367,-0.81088 -0.105592,-0.26715 -0.219536,-0.53091 -0.341662,-0.79089 -0.122121,-0.26002 -0.252366,-0.51613 -0.390544,-0.76796 -0.138179,-0.2518 -0.284221,-0.49919 -0.43791,-0.7418 -0.153694,-0.24262 -0.31496,-0.48034 -0.483559,-0.71281 -0.168599,-0.23248 -0.34445,-0.45959 -0.527289,-0.681 -0.182828,-0.22141 -0.3725546,-0.437 -0.5688986,-0.64647 -0.196374,-0.20946 -0.39927,-0.4127 -0.608387,-0.60939 -0.209072,-0.19669 -0.424263,-0.38676 -0.64525,-0.56991 -0.221018,-0.18316 -0.447728,-0.35931 -0.67979,-0.5282 -0.232044,-0.16891 -0.469329,-0.33048 -0.711502,-0.48447 -0.242182,-0.15397 -0.489133,-0.30028 -0.740487,-0.43871 -0.251361,-0.13843 -0.507003,-0.26891 -0.766544,-0.39126 -0.259514,-0.12234 -0.522801,-0.23649 -0.78947,-0.34226 -0.266702,-0.1058 -0.536659,-0.20317 -0.809466,-0.29198 -0.272796,-0.0888 -0.548309,-0.16893 -0.82613,-0.24036 -0.277819,-0.0715 -0.557813,-0.1342 -0.839563,-0.18805 -0.281741,-0.0539 -0.565102,-0.0988 -0.849662,-0.13483 -0.284591,-0.036 -0.57024205,-0.0631 -0.85652905,-0.0811 -0.286267,-0.018 -0.57303,-0.0271 -0.859862,-0.0271 z"
       style="fill:#666666;stroke-width:0.0195435"
       id="path11" /></g></svg>
